<svg width="24" height="24" viewBox="0 0 24 24" fill="none" xmlns="http://www.w3.org/2000/svg">
<g id="carbon:overflow-menu-horizontal">
<g id="Group 3">
<path id="Vector" d="M5.77778 13.5556C6.75961 13.5556 7.55555 12.7596 7.55555 11.7778C7.55555 10.7959 6.75961 10 5.77778 10C4.79594 10 4 10.7959 4 11.7778C4 12.7596 4.79594 13.5556 5.77778 13.5556Z" fill="#B2B2B2"/>
<path id="Vector_2" d="M11.9999 13.5556C12.9818 13.5556 13.7777 12.7596 13.7777 11.7778C13.7777 10.7959 12.9818 10 11.9999 10C11.0181 10 10.2222 10.7959 10.2222 11.7778C10.2222 12.7596 11.0181 13.5556 11.9999 13.5556Z" fill="#B2B2B2"/>
<path id="Vector_3" d="M18.2222 13.5556C19.2041 13.5556 20 12.7596 20 11.7778C20 10.7959 19.2041 10 18.2222 10C17.2404 10 16.4445 10.7959 16.4445 11.7778C16.4445 12.7596 17.2404 13.5556 18.2222 13.5556Z" fill="#B2B2B2"/>
</g>
</g>
</svg>
