<svg width="24" height="24" viewBox="0 0 24 24" fill="none" xmlns="http://www.w3.org/2000/svg">
<g id="Frame 9">
<path id="Union" fill-rule="evenodd" clip-rule="evenodd" d="M14.2307 8.16963C15.9089 9.92705 15.8448 12.7122 14.0874 14.3905C12.3299 16.0688 9.54476 16.0046 7.86647 14.2472C6.18819 12.4898 6.25235 9.70462 8.00977 8.02634C9.76719 6.34806 12.5524 6.41221 14.2307 8.16963ZM16.013 15.2486C18.0243 12.7835 17.9311 9.14868 15.6771 6.78836C13.2359 4.23211 9.18475 4.1388 6.6285 6.57993C4.07225 9.02107 3.97893 13.0722 6.42007 15.6285C8.67409 17.9888 12.3008 18.2493 14.8559 16.3536L16.5476 18.1251C16.8527 18.4447 17.3591 18.4563 17.6787 18.1512C17.9982 17.846 18.0099 17.3397 17.7047 17.0201L16.013 15.2486Z" fill="#B2B2B2"/>
</g>
</svg>
