<svg width="38" height="38" viewBox="0 0 38 38" fill="none" xmlns="http://www.w3.org/2000/svg">
<g id="Group 2772">
<path id="Path 4058" d="M1.21521 19.3454H10.6452C14.6842 19.3744 18.0092 21.6664 18.5182 25.5724H19.5302C20.0422 21.6474 23.3972 19.3434 27.4622 19.3434H36.3362V27.3434H30.1092V28.2144H36.7712C36.8868 28.2144 36.9977 28.1685 37.0795 28.0867C37.1613 28.005 37.2072 27.894 37.2072 27.7784V18.9044C37.2072 18.7888 37.1613 18.6779 37.0795 18.5961C36.9977 18.5144 36.8868 18.4684 36.7712 18.4684H27.4612C23.3962 18.4684 20.0412 16.1684 19.5292 12.2384H18.5172C18.0052 16.1644 14.6502 18.4684 10.5852 18.4684H1.65621C1.69121 15.8744 1.7472 11.7884 1.7662 10.4684H7.94219V9.59644H1.40719C1.38601 9.59316 1.36462 9.59148 1.3432 9.59143C1.2222 9.59143 0.949198 9.63444 0.908198 10.0324C0.908198 10.0414 0.908198 10.0504 0.908198 10.0584C0.908198 10.0664 0.908198 10.0984 0.908198 10.1194L0.889186 11.4084C0.877186 12.2404 0.862194 13.3504 0.847194 14.4604L0.787196 18.8994C0.786407 18.9571 0.797053 19.0144 0.818507 19.0679C0.839961 19.1215 0.871799 19.1702 0.912196 19.2114C0.992596 19.2928 1.10089 19.3407 1.21521 19.3454Z" fill="#0A337A"/>
<path id="Path 4059" d="M12.1732 28.4085H25.8732V27.1605H12.1732V28.4085Z" fill="#0A337A"/>
<path id="Path 4060" d="M5.62217 37.4044H5.67418C6.93022 37.4149 8.14606 36.962 9.08918 36.1324C9.622 35.6625 10.0481 35.0841 10.3389 34.4359C10.6297 33.7877 10.7785 33.0848 10.7752 32.3744V20.9304H9.52717V32.3744C9.53001 32.921 9.41303 33.4616 9.18446 33.9582C8.95589 34.4547 8.62127 34.8951 8.20417 35.2484C7.49949 35.8429 6.60507 36.165 5.68318 36.1564H5.6212C5.07458 36.1592 4.53396 36.0423 4.03743 35.8137C3.54089 35.5851 3.10048 35.2505 2.74717 34.8334C2.15272 34.1287 1.83058 33.2343 1.83918 32.3124V32.2504C1.83058 31.3285 2.15272 30.4341 2.74717 29.7294C3.10052 29.3124 3.54096 28.9778 4.03749 28.7492C4.53401 28.5206 5.07459 28.4036 5.6212 28.4064H8.12718V27.1604H5.6212C4.91079 27.1571 4.20788 27.3059 3.5597 27.5967C2.91153 27.8875 2.33307 28.3136 1.86317 28.8464C1.03415 29.7894 0.581664 31.0048 0.592174 32.2604V32.3034C0.581693 33.5594 1.03456 34.7753 1.86418 35.7184C2.33403 36.2513 2.9125 36.6774 3.56068 36.9682C4.20886 37.259 4.91175 37.4078 5.62217 37.4044Z" fill="#0A337A"/>
<path id="Path 4061" d="M12.1742 10.6555H25.8742V9.40747H12.1742V10.6555Z" fill="#0A337A"/>
<path id="Path 4062" d="M10.7752 5.72745C10.7906 4.75973 11.1604 3.83125 11.8145 3.11786C12.4685 2.40446 13.3614 1.95568 14.3242 1.85645C14.8454 1.82086 15.3685 1.89266 15.8608 2.06741C16.3532 2.24216 16.8045 2.51614 17.1867 2.87238C17.5689 3.22861 17.8739 3.6595 18.0828 4.1384C18.2917 4.61729 18.4001 5.13396 18.4012 5.65643V8.00745H19.6452V5.65643C19.6452 4.31417 19.112 3.02691 18.1628 2.07779C17.2137 1.12867 15.9264 0.595459 14.5842 0.595459C13.2419 0.595459 11.9546 1.12867 11.0055 2.07779C10.0564 3.02691 9.52319 4.31417 9.52319 5.65643V16.8804H10.7712L10.7752 5.72745Z" fill="#0A337A"/>
<path id="Path 4063" d="M35.8342 1.98448C34.8737 1.08306 33.6024 0.58725 32.2852 0.600478C31.3668 0.594965 30.4655 0.84906 29.6852 1.33348C28.9525 1.78695 28.3475 2.41983 27.9276 3.17226C27.5076 3.92468 27.2865 4.77181 27.2852 5.6335V16.8925H28.5332V5.63048C28.5352 4.98253 28.7023 4.3458 29.0186 3.78032C29.3349 3.21484 29.7901 2.73927 30.3412 2.39848C30.932 2.03289 31.6144 1.84221 32.3092 1.84849C33.3014 1.83785 34.2594 2.21078 34.9832 2.88948C35.5315 3.41036 35.9111 4.08368 36.0729 4.82246C36.2347 5.56125 36.1712 6.33158 35.8907 7.03395C35.6103 7.73632 35.1257 8.33848 34.4996 8.76265C33.8734 9.18682 33.1345 9.41354 32.3782 9.4135H29.9292V10.6615H32.3782C33.3839 10.6614 34.3665 10.3599 35.1992 9.79585C36.0318 9.23178 36.6762 8.43107 37.0493 7.49708C37.4223 6.5631 37.5067 5.53873 37.2917 4.55626C37.0768 3.57379 36.5722 2.67833 35.8432 1.98549L35.8342 1.98448Z" fill="#0A337A"/>
<path id="Path 4064" d="M27.2752 32.2134C27.2644 33.2039 26.8802 34.1537 26.1991 34.873C25.5181 35.5922 24.5906 36.0277 23.6022 36.0924C23.09 36.1113 22.5793 36.0266 22.1005 35.8436C21.6217 35.6605 21.1848 35.3828 20.8158 35.0271C20.4468 34.6713 20.1533 34.2448 19.9529 33.7731C19.7524 33.3013 19.6491 32.794 19.6492 32.2814V29.8064H18.4012V32.2814C18.3994 32.9462 18.5295 33.6047 18.7838 34.2189C19.0382 34.833 19.4119 35.3907 19.8832 35.8594L19.9082 35.8844C20.853 36.8207 22.1301 37.3446 23.4602 37.3414H23.5322C24.8603 37.3177 26.1263 36.7747 27.059 35.8289C27.9917 34.8832 28.5169 33.6097 28.5222 32.2814V20.9344H27.2742L27.2752 32.2134Z" fill="#0A337A"/>
</g>
</svg>
