<svg width="24" height="24" viewBox="0 0 24 24" fill="none" xmlns="http://www.w3.org/2000/svg">
<g id="bi:pin-angle-fill">
<g id="Group">
<path id="Vector" d="M13.7575 3.99999C13.8327 3.99985 13.9073 4.01455 13.9768 4.04325C14.0464 4.07194 14.1097 4.11407 14.1629 4.16722L19.8328 9.83704C19.9401 9.94444 20.0005 10.0901 20.0005 10.242C20.0005 10.3938 19.9401 10.5395 19.8328 10.6469C19.283 11.1967 18.6049 11.3204 18.1112 11.3204C17.9085 11.3204 17.7275 11.2997 17.5843 11.2757L13.9946 14.8654C14.0891 15.2462 14.1504 15.6344 14.1778 16.0257C14.2305 16.8298 14.1412 17.9581 13.3531 18.7461C13.2457 18.8535 13.1001 18.9138 12.9482 18.9138C12.7964 18.9138 12.6507 18.8535 12.5433 18.7461L9.30292 15.5069L5.6582 19.1516C5.43484 19.375 4.26193 20.1848 4.03858 19.9614C3.81522 19.7381 4.62503 18.564 4.84839 18.3418L8.49311 14.6971L5.25387 11.4567C5.1465 11.3493 5.08618 11.2036 5.08618 11.0518C5.08618 10.8999 5.1465 10.7543 5.25387 10.6469C6.04191 9.85881 7.17015 9.76832 7.97424 9.82215C8.36558 9.84958 8.7538 9.91089 9.13455 10.0054L12.7243 6.41682C12.6943 6.24239 12.679 6.06576 12.6785 5.88878C12.6785 5.39625 12.8022 4.71816 13.3531 4.16722C13.4605 4.06016 13.6059 4.00002 13.7575 3.99999Z" fill="#B2B2B2"/>
</g>
</g>
</svg>
